HIERARCHY
ROOT Hips
{
	OFFSET	0.00	0.00	0.00
	CHANNELS 6 Xposition Yposition Zposition Zrotation Xrotation Yrotation
	JOINT LeftUpLeg
	{
		OFFSET	 0.126116	-0.014019	-0.065224
		CHANNELS 3 Zrotation Xrotation Yrotation
		JOINT LeftLeg
		{
			OFFSET	 0.000000	 0.000000	 0.569914
			CHANNELS 3 Zrotation Xrotation Yrotation
			JOINT LeftFoot
			{
				OFFSET	 0.000000	 0.000000	 0.544423
				CHANNELS 3 Zrotation Xrotation Yrotation
				JOINT LeftToeBase
				{
					OFFSET	 0.000000	 0.000000	 0.207117
					CHANNELS 3 Zrotation Xrotation Yrotation
					End Site
					{
						OFFSET	 0.000000	 0.000000	 0.207117
					}
				}
			}
		}
	}
	JOINT RightUpLeg
	{
		OFFSET	-0.124023	-0.008373	-0.065224
		CHANNELS 3 Zrotation Xrotation Yrotation
		JOINT RightLeg
		{
			OFFSET	 0.000000	 0.000000	 0.570047
			CHANNELS 3 Zrotation Xrotation Yrotation
			JOINT RightFoot
			{
				OFFSET	 0.000000	 0.000000	 0.544354
				CHANNELS 3 Zrotation Xrotation Yrotation
				JOINT RightToeBase
				{
					OFFSET	 0.000000	 0.000000	 0.207540
					CHANNELS 3 Zrotation Xrotation Yrotation
					End Site
					{
						OFFSET	 0.000000	 0.000000	 0.207540
					}
				}
			}
		}
	}
	JOINT Spine
	{
		OFFSET	 0.000184	-0.007763	 0.117403
		CHANNELS 3 Zrotation Xrotation Yrotation
		JOINT Spine1
		{
			OFFSET	 0.000000	 0.000000	 0.137269
			CHANNELS 3 Zrotation Xrotation Yrotation
			JOINT Spine2
			{
				OFFSET	 0.000000	 0.000000	 0.156879
				CHANNELS 3 Zrotation Xrotation Yrotation
				JOINT LeftShoulder
				{
					OFFSET	 0.080501	-0.002496	 0.160144
					CHANNELS 3 Zrotation Xrotation Yrotation
					JOINT LeftArm
					{
						OFFSET	 0.000000	 0.000000	 0.164363
						CHANNELS 3 Zrotation Xrotation Yrotation
						JOINT LeftForeArm
						{
							OFFSET	 0.000000	 0.000000	 0.364576
							CHANNELS 3 Zrotation Xrotation Yrotation
							JOINT LeftHand
							{
								OFFSET	 0.000000	 0.000000	 0.360812
								CHANNELS 3 Zrotation Xrotation Yrotation
								JOINT LeftHandIndex1
								{
									OFFSET	 0.000000	 0.000000	 0.086006
									CHANNELS 3 Zrotation Xrotation Yrotation
									JOINT LeftHandIndex2
									{
										OFFSET	 0.000000	 0.000000	 0.047236
										CHANNELS 3 Zrotation Xrotation Yrotation
										JOINT LeftHandIndex3
										{
											OFFSET	-0.004284	-0.000551	 0.038166
											CHANNELS 3 Zrotation Xrotation Yrotation
											End Site
											{
												OFFSET	-0.004284	-0.000551	 0.038166
											}
										}
									}
								}
							}
						}
					}
				}
				JOINT Neck
				{
					OFFSET	 0.000000	 0.000000	 0.176489
					CHANNELS 3 Zrotation Xrotation Yrotation
					JOINT Head
					{
						OFFSET	 0.000000	-0.001747	 0.077940
						CHANNELS 3 Zrotation Xrotation Yrotation
						End Site
						{
							OFFSET	 0.000000	-0.001747	 0.077940
						}
					}
				}
				JOINT RightShoulder
				{
					OFFSET	-0.080363	 0.000306	 0.159706
					CHANNELS 3 Zrotation Xrotation Yrotation
					JOINT RightArm
					{
						OFFSET	 0.000000	 0.000000	 0.164196
						CHANNELS 3 Zrotation Xrotation Yrotation
						JOINT RightForeArm
						{
							OFFSET	 0.000000	 0.000000	 0.365611
							CHANNELS 3 Zrotation Xrotation Yrotation
							JOINT RightHand
							{
								OFFSET	 0.000000	 0.000000	 0.360648
								CHANNELS 3 Zrotation Xrotation Yrotation
								JOINT RightHandIndex1
								{
									OFFSET	 0.000000	 0.000000	 0.069977
									CHANNELS 3 Zrotation Xrotation Yrotation
									JOINT RightHandIndex2
									{
										OFFSET	 0.000000	 0.000000	 0.052305
										CHANNELS 3 Zrotation Xrotation Yrotation
										JOINT RightHandIndex3
										{
											OFFSET	 0.009002	-0.000782	 0.042196
											CHANNELS 3 Zrotation Xrotation Yrotation
											End Site
											{
												OFFSET	 0.009002	-0.000782	 0.042196
											}
										}
									}
								}
							}
						}
					}
				}
			}
		}
	}
}
MOTION
Frames:    6
Frame Time: 0.03333334
-0.000540	 0.016949	 1.310187	 0.002424	 0.000736	-0.165336	-4.843738	-1.533243	 179.104400	 1.475989	-11.736320	-0.684794	-5.119628	 63.891030	-0.990661	-2.385833	 28.452760	 0.000004	 4.760647	-2.252054	-178.807300	-1.449311	-12.790860	 0.734574	 5.076028	 64.265880	 0.905816	 2.384658	 28.388730	 0.000004	-11.453620	 2.768626	-0.086889	 1.922426	 3.570261	 0.764398	-5.783785	-4.400284	-1.255485	-91.776220	 78.527430	-180.000000	 55.013300	 39.042450	-53.917580	-20.956340	 2.115818	-8.399236	-31.822160	-7.770863	-4.628872	-2.635965	 4.993658	 6.788941	-5.165319	 0.784187	 3.516649	-5.225038	 0.466231	 0.424329	-0.000002	-3.783157	-0.089647	-5.622881	 4.778839	 0.234802	 89.782140	 78.203900	 180.000000	 4.974369	 13.293750	 97.843900	-21.594450	 1.368991	 12.417880	 5.092134	-8.686930	-5.801367	 6.112037	 4.509576	-0.364401	 4.968462	 1.518543	-9.347576	 5.168945	 0.703820	 2.021906
-0.000538	 0.016895	 1.311146	 0.002715	 0.001682	-0.157873	-4.776979	-1.537868	 179.092200	 1.475921	-11.741600	-0.685109	-5.136805	 63.742400	-0.981739	-2.385833	 28.452760	 0.000004	 4.665053	-2.247934	-178.806700	-1.449544	-12.773320	 0.733535	 5.056118	 64.106440	 0.907262	 2.384658	 28.388730	 0.000004	-11.416770	 2.766843	-0.080094	 1.843458	 3.568753	 0.734958	-5.545936	-4.410797	-1.205260	-91.776190	 78.527430	 180.000000	 55.006150	 39.031590	-53.891730	-21.079490	 2.152141	-8.472657	-31.396900	-10.200300	-4.652121	-2.635965	 4.993658	 6.788941	-5.165319	 0.784187	 3.516649	-5.225038	 0.466231	 0.424329	-0.000002	-3.783157	-0.089647	-5.390491	 4.807621	 0.226440	 89.782120	 78.203900	 180.000000	 5.021832	 13.367460	 97.764170	-21.530680	 1.392564	 12.662750	 4.222794	-11.037120	-5.881160	 6.112037	 4.509576	-0.364401	 4.968462	 1.518543	-9.347576	 5.168945	 0.703820	 2.021906
-0.000534	 0.016839	 1.312101	 0.003000	 0.002677	-0.149436	-4.695110	-1.543558	 179.078000	 1.475842	-11.748320	-0.685513	-5.136747	 63.593120	-0.976054	-2.385833	 28.452760	 0.000004	 4.582048	-2.242465	-178.807700	-1.449800	-12.753520	 0.732358	 5.052579	 63.943960	 0.905418	 2.384658	 28.388730	 0.000004	-11.377230	 2.764684	-0.072274	 1.753445	 3.567916	 0.701213	-5.274740	-4.423330	-1.147906	-91.776170	 78.527450	 180.000000	 55.008740	 39.021740	-53.879360	-21.202610	 2.188060	-8.545000	-30.955780	-12.799990	-4.632198	-2.635965	 4.993658	 6.788941	-5.165319	 0.784187	 3.516649	-5.225038	 0.466231	 0.424329	-0.000002	-3.783157	-0.089647	-5.125645	 4.838534	 0.216684	 89.782090	 78.203870	-180.000000	 5.050624	 13.448040	 97.670910	-21.473450	 1.414948	 12.920210	 3.300093	-13.560860	-6.035042	 6.112037	 4.509576	-0.364401	 4.968462	 1.518543	-9.347576	 5.168945	 0.703820	 2.021906
-0.000522	 0.016775	 1.313100	 0.003311	 0.003758	-0.139574	-4.608065	-1.550584	 179.062100	 1.475729	-11.757490	-0.686061	-5.136750	 63.435300	-0.969900	-2.385833	 28.452760	 0.000004	 4.493668	-2.235878	-178.809600	-1.450097	-12.730720	 0.731005	 5.048609	 63.770230	 0.903624	 2.384658	 28.388730	 0.000004	-11.330390	 2.762069	-0.062877	 1.646713	 3.567731	 0.661007	-4.953142	-4.438375	-1.079752	-91.776090	 78.527420	 179.999900	 55.020720	 39.014320	-53.879860	-21.331060	 2.227803	-8.623165	-30.468940	-15.703160	-4.554658	-2.635965	 4.993658	 6.788941	-5.165319	 0.784187	 3.516649	-5.225038	 0.466231	 0.424329	-0.000002	-3.783157	-0.089647	-4.811710	 4.872766	 0.204837	 89.782200	 78.203890	 179.999900	 5.045482	 13.528110	 97.546350	-21.416910	 1.436688	 13.213410	 2.259774	-16.377930	-6.290566	 6.112037	 4.509576	-0.364401	 4.968462	 1.518543	-9.347576	 5.168945	 0.703820	 2.021906
-0.000502	 0.016709	 1.314017	 0.003592	 0.004770	-0.129390	-4.525832	-1.558250	 179.046400	 1.475597	-11.768380	-0.686716	-5.136778	 63.287490	-0.963952	-2.385833	 28.452760	 0.000004	 4.410136	-2.228972	-178.812100	-1.450402	-12.707670	 0.729636	 5.044618	 63.605420	 0.902105	 2.384658	 28.388730	 0.000004	-11.279450	 2.759375	-0.053097	 1.535910	 3.568106	 0.619116	-4.619234	-4.453764	-1.008828	-91.776230	 78.527420	-180.000000	 55.046570	 39.008480	-53.902770	-21.450830	 2.263277	-8.693022	-29.986150	-18.546180	-4.419870	-2.635965	 4.993658	 6.788941	-5.165319	 0.784187	 3.516649	-5.225038	 0.466231	 0.424329	-0.000002	-3.783157	-0.089647	-4.485933	 4.905743	 0.192246	 89.782160	 78.203870	 179.999900	 4.999349	 13.607220	 97.485440	-21.365180	 1.470799	 13.347890	 1.220648	-19.122140	-6.628268	 6.112037	 4.509576	-0.364401	 4.968462	 1.518543	-9.347576	 5.168945	 0.703820	 2.021906
-0.000473	 0.016642	 1.314801	 0.003809	 0.005645	-0.119635	-4.451126	-1.566032	 179.031800	 1.475452	-11.780060	-0.687419	-5.136817	 63.154140	-0.958500	-2.385833	 28.452760	 0.000004	 4.334276	-2.222146	-178.814800	-1.450689	-12.685690	 0.728333	 5.040863	 63.455220	 0.900836	 2.384658	 28.388730	 0.000004	-11.225680	 2.756832	-0.043289	 1.427192	 3.568834	 0.577897	-4.291546	-4.468367	-0.939058	-91.776170	 78.527450	 180.000000	 55.079850	 39.009700	-53.941510	-21.556510	 2.295631	-8.755897	-29.522660	-21.185410	-4.238884	-2.635965	 4.993658	 6.788941	-5.165319	 0.784187	 3.516649	-5.225038	 0.466231	 0.424329	-0.000002	-3.783157	-0.089647	-4.166436	 4.935698	 0.179633	 89.782150	 78.203870	 180.000000	 4.947541	 13.697460	 97.715050	-21.308660	 1.555810	 12.915070	 0.226726	-21.652920	-7.024354	 6.112037	 4.509576	-0.364401	 4.968462	 1.518543	-9.347576	 5.168945	 0.703820	 2.021906
